HIERARCHY
ROOT Hips
{
  OFFSET 5.84602e-005 68.8428 3.50346
  CHANNELS 6 Xposition Yposition Zposition Zrotation Xrotation Yrotation
  JOINT Spine
  {
    OFFSET 0 8.597 -4.6522
    CHANNELS 3 Zrotation Xrotation Yrotation
    JOINT Spine1
    {
      OFFSET 0 7.8454 0.4098
      CHANNELS 3 Zrotation Xrotation Yrotation
      JOINT Spine2
      {
        OFFSET 0 9.7078 -2.1609
        CHANNELS 3 Zrotation Xrotation Yrotation
        JOINT Neck
        {
          OFFSET 0 21.8761 -0.4549
          CHANNELS 3 Zrotation Xrotation Yrotation
          JOINT Head
          {
            OFFSET 0 12.3537 3.3602
            CHANNELS 3 Zrotation Xrotation Yrotation
            End Site
            {
              OFFSET 0.0001 18.9506 0.5657
            }
          }
        }
        JOINT LeftShoulder
        {
          OFFSET 2.2086 21.1115 7.2329
          CHANNELS 3 Zrotation Xrotation Yrotation
          JOINT LeftArm
          {
            OFFSET 13.1193 3.0282 -4.8998
            CHANNELS 3 Zrotation Xrotation Yrotation
            JOINT LeftForeArm
            {
              OFFSET 27.4081 -0.0973053 -0.2375
              CHANNELS 3 Zrotation Xrotation Yrotation
              JOINT LeftHand
              {
                OFFSET 22.8641 0.0662994 -0.1369
                CHANNELS 3 Zrotation Xrotation Yrotation
                JOINT LeftHandIndex1
                {
                  OFFSET 8.8614 0.775009 2.4612
                  CHANNELS 3 Zrotation Xrotation Yrotation
                  JOINT LeftHandIndex2
                  {
                    OFFSET 3.3146 -0.808304 0.5841
                    CHANNELS 3 Zrotation Xrotation Yrotation
                    JOINT LeftHandIndex3
                    {
                      OFFSET 2.2628 -0.552002 0.3989
                      CHANNELS 3 Zrotation Xrotation Yrotation
                      End Site
                      {
                        OFFSET 1.6102 -0.4807 0.2612
                      }
                    }
                  }
                }
                JOINT LeftHandMiddle1
                {
                  OFFSET 8.9937 0.895004 0.2143
                  CHANNELS 3 Zrotation Xrotation Yrotation
                  JOINT LeftHandMiddle2
                  {
                    OFFSET 4.0984 0.0113983 -0.0242
                    CHANNELS 3 Zrotation Xrotation Yrotation
                    JOINT LeftHandMiddle3
                    {
                      OFFSET 2.2716 0.00689697 -0.0138001
                      CHANNELS 3 Zrotation Xrotation Yrotation
                      End Site
                      {
                        OFFSET 2.0404 -0.1441 0.0027
                      }
                    }
                  }
                }
                JOINT LeftHandRing1
                {
                  OFFSET 8.5234 0.597198 -2.0164
                  CHANNELS 3 Zrotation Xrotation Yrotation
                  JOINT LeftHandRing2
                  {
                    OFFSET 3.7188 -0.188293 -0.2328
                    CHANNELS 3 Zrotation Xrotation Yrotation
                    JOINT LeftHandRing3
                    {
                      OFFSET 2.1191 -0.106598 -0.1332
                      CHANNELS 3 Zrotation Xrotation Yrotation
                      End Site
                      {
                        OFFSET 1.8737 -0.2304 -0.0886
                      }
                    }
                  }
                }
                JOINT LeftHandPinky1
                {
                  OFFSET 7.9094 -0.601089 -3.4825
                  CHANNELS 3 Zrotation Xrotation Yrotation
                  JOINT LeftHandPinky2
                  {
                    OFFSET 2.2874 -0.477005 -0.6314
                    CHANNELS 3 Zrotation Xrotation Yrotation
                    JOINT LeftHandPinky3
                    {
                      OFFSET 1.6774 -0.349396 -0.4633
                      CHANNELS 3 Zrotation Xrotation Yrotation
                      End Site
                      {
                        OFFSET 1.4888 -0.4091 -0.3416
                      }
                    }
                  }
                }
                JOINT LeftHandThumb1
                {
                  OFFSET 1.833 -1.3875 1.3896
                  CHANNELS 3 Zrotation Xrotation Yrotation
                  JOINT LeftHandThumb2
                  {
                    OFFSET 3.4129 -1.121 2.5732
                    CHANNELS 3 Zrotation Xrotation Yrotation
                    JOINT LeftHandThumb3
                    {
                      OFFSET 2.2474 -0.804199 1.6192
                      CHANNELS 3 Zrotation Xrotation Yrotation
                      End Site
                      {
                        OFFSET 1.6527 -0.5689 1.1317
                      }
                    }
                  }
                }
              }
            }
          }
        }
        JOINT RightShoulder
        {
          OFFSET -2.2086 21.1115 7.2329
          CHANNELS 3 Zrotation Xrotation Yrotation
          JOINT RightArm
          {
            OFFSET -13.1216 3.0287 -4.9007
            CHANNELS 3 Zrotation Xrotation Yrotation
            JOINT RightForeArm
            {
              OFFSET -27.4081 -0.0973053 -0.2375
              CHANNELS 3 Zrotation Xrotation Yrotation
              JOINT RightHand
              {
                OFFSET -22.8641 0.0664063 -0.1369
                CHANNELS 3 Zrotation Xrotation Yrotation
                JOINT RightHandIndex1
                {
                  OFFSET -8.8614 0.774994 2.4612
                  CHANNELS 3 Zrotation Xrotation Yrotation
                  JOINT RightHandIndex2
                  {
                    OFFSET -3.3146 -0.808304 0.5841
                    CHANNELS 3 Zrotation Xrotation Yrotation
                    JOINT RightHandIndex3
                    {
                      OFFSET -2.2628 -0.552002 0.3989
                      CHANNELS 3 Zrotation Xrotation Yrotation
                      End Site
                      {
                        OFFSET -1.6102 -0.4807 0.2612
                      }
                    }
                  }
                }
                JOINT RightHandMiddle1
                {
                  OFFSET -8.9937 0.894989 0.2143
                  CHANNELS 3 Zrotation Xrotation Yrotation
                  JOINT RightHandMiddle2
                  {
                    OFFSET -4.0984 0.0113983 -0.0242
                    CHANNELS 3 Zrotation Xrotation Yrotation
                    JOINT RightHandMiddle3
                    {
                      OFFSET -2.2716 0.00691223 -0.0138001
                      CHANNELS 3 Zrotation Xrotation Yrotation
                      End Site
                      {
                        OFFSET -2.0404 -0.1441 0.0027
                      }
                    }
                  }
                }
                JOINT RightHandRing1
                {
                  OFFSET -8.5234 0.597198 -2.0164
                  CHANNELS 3 Zrotation Xrotation Yrotation
                  JOINT RightHandRing2
                  {
                    OFFSET -3.7188 -0.188309 -0.2328
                    CHANNELS 3 Zrotation Xrotation Yrotation
                    JOINT RightHandRing3
                    {
                      OFFSET -2.1191 -0.106598 -0.1332
                      CHANNELS 3 Zrotation Xrotation Yrotation
                      End Site
                      {
                        OFFSET -1.8737 -0.2304 -0.0886
                      }
                    }
                  }
                }
                JOINT RightHandPinky1
                {
                  OFFSET -7.9094 -0.601105 -3.4825
                  CHANNELS 3 Zrotation Xrotation Yrotation
                  JOINT RightHandPinky2
                  {
                    OFFSET -2.2874 -0.477005 -0.6314
                    CHANNELS 3 Zrotation Xrotation Yrotation
                    JOINT RightHandPinky3
                    {
                      OFFSET -1.6774 -0.349396 -0.4633
                      CHANNELS 3 Zrotation Xrotation Yrotation
                      End Site
                      {
                        OFFSET -1.4888 -0.4091 -0.3416
                      }
                    }
                  }
                }
                JOINT RightHandThumb1
                {
                  OFFSET -1.833 -1.38751 1.3896
                  CHANNELS 3 Zrotation Xrotation Yrotation
                  JOINT RightHandThumb2
                  {
                    OFFSET -3.41299 -1.12099 2.5732
                    CHANNELS 3 Zrotation Xrotation Yrotation
                    JOINT RightHandThumb3
                    {
                      OFFSET -2.24741 -0.804108 1.6192
                      CHANNELS 3 Zrotation Xrotation Yrotation
                      End Site
                      {
                        OFFSET -1.6527 -0.5689 1.1317
                      }
                    }
                  }
                }
              }
            }
          }
        }
      }
    }
  }
  JOINT RightUpLeg
  {
    OFFSET -9.1966 3.8861 -0.7581
    CHANNELS 3 Zrotation Xrotation Yrotation
    JOINT RightLeg
    {
      OFFSET -0.7359 -41.0265 0
      CHANNELS 3 Zrotation Xrotation Yrotation
      JOINT RightFoot
      {
        OFFSET 0 -40.2855 0
        CHANNELS 3 Zrotation Xrotation Yrotation
        JOINT RightToeBase
        {
          OFFSET 0 -5.6122 11.7359
          CHANNELS 3 Zrotation Xrotation Yrotation
          End Site
          {
            OFFSET 0 0 7.8731
          }
        }
      }
    }
  }
  JOINT LeftUpLeg
  {
    OFFSET 9.1965 3.8864 -0.7581
    CHANNELS 3 Zrotation Xrotation Yrotation
    JOINT LeftLeg
    {
      OFFSET 0.7359 -41.0268 0
      CHANNELS 3 Zrotation Xrotation Yrotation
      JOINT LeftFoot
      {
        OFFSET 0 -40.2855 0
        CHANNELS 3 Zrotation Xrotation Yrotation
        JOINT LeftToeBase
        {
          OFFSET 0 -5.6122 11.7359
          CHANNELS 3 Zrotation Xrotation Yrotation
          End Site
          {
            OFFSET 0 0 7.8731
          }
        }
      }
    }
  }
}
MOTION
Frames:	4
Frame Time:	0.0333333
5.84602e-005 68.8428 3.50346 0 0 -0 0 0 -0 0 0 -0 0 0 -0 0 0 -0 0 0 -0 0 0 -0 0 0 -0 0 0 -0 0 0 -0 0 0 -0 0 0 -0 0 0 -0 0 0 -0 -0.0146107 -8.87603e-005 -2.63497e-007 2.99804e-018 -2.42657e-020 -1.42182e-022 0 0 -0 -0.0187562 -0.001176 5.858e-005 5.06224e-018 3.88251e-019 1.21329e-020 0 0 -0 -0.012269 -0.00324817 0.000675346 -1.74678e-018 3.88251e-019 -0 0 0 -0 0 0 -0 0 0 -0 0 0 -0 0 0 -0 0 0 -0 0 0 -0 0 0 -0 0 0 -0 0 0 -0 0 0 -0 0.0149955 -9.10982e-005 2.64101e-007 -9.69331e-018 1.21329e-020 -4.7394e-023 0 0 -0 0.0189956 -0.00119102 -5.96516e-005 -5.41541e-019 0 2.42657e-020 0 0 -0 0.0122698 -0.00324857 -0.000673756 -2.00796e-019 0 -1.94126e-019 0 0 -0 0 0 -0 0 0 -0 3.39842 1.33031 -0.0637918 -5.65207e-008 0.834868 -0.000436188 -3.39935 -2.16518 -0.0642563 -8.89002e-024 -1.18485e-023 -1.48106e-024 -3.39844 1.35642 0.0640283 -3.18788e-007 0.782166 -0.000588827 3.39931 -2.13858 0.0634662 1.1399e-023 0 -0 
39.7389 37.0694 22.5122 179.994 51.0033 0.0125389 -0.169938 -1.41779 0.139932 -0.336565 -2.83599 0.275781 -0.336565 -2.836 0.275781 1.91986e-005 15.9934 -1.3328e-005 2.63649e-007 10.996 -4.02213e-008 6.16074 1.44727 17.8843 -20.0249 56.9917 32.3535 32.0965 48.6369 -73.317 0.559469 -1.45497 8.28396 7.62519e-007 3.18502e-007 -2.04882e-007 1.52504e-006 6.37004e-007 -4.09764e-007 7.62519e-007 3.18502e-007 -2.04882e-007 7.62519e-007 3.18502e-007 -2.04882e-007 -0.0145973 -9.02534e-005 9.34388e-006 7.62511e-007 3.18528e-007 -2.04842e-007 7.62519e-007 3.18502e-007 -2.04882e-007 -0.0187469 -0.00117539 6.65447e-005 7.62506e-007 3.18535e-007 -2.04838e-007 7.62519e-007 3.18502e-007 -2.04882e-007 -0.0122452 -0.00324332 0.000681223 7.62508e-007 3.18518e-007 -2.04869e-007 7.62519e-007 3.18502e-007 -2.04882e-007 1.52504e-006 6.37004e-007 -4.09764e-007 7.62519e-007 3.18502e-007 -2.04882e-007 -6.18125 1.45149 -17.9018 20.0248 56.9874 -32.3561 -32.116 48.6231 73.3073 -0.573329 -1.45399 -8.27712 1.82434e-007 -1.34128e-007 -1.94635e-006 7.68595e-007 -3.03112e-007 -2.06523e-007 7.68595e-007 -3.03111e-007 -2.06523e-007 1.82434e-007 -1.34128e-007 -1.94635e-006 0.0150242 -9.28553e-005 -2.80082e-006 1.80537e-007 -1.34372e-007 -1.94633e-006 1.82434e-007 -1.34128e-007 -1.94635e-006 0.0189578 -0.00118791 -5.75504e-005 7.68583e-007 -3.03145e-007 -2.06481e-007 1.82434e-007 -1.34128e-007 -1.94635e-006 0.0122387 -0.00323971 -0.000673526 7.68584e-007 -3.03127e-007 -2.06512e-007 1.82434e-007 -1.34128e-007 -1.94635e-006 7.68595e-007 -3.03112e-007 -2.06523e-007 7.68595e-007 -3.03111e-007 -2.06523e-007 -40.0284 34.0519 -26.4296 -70.4272 38.803 70.7519 19.6139 12.7631 10.1977 -1.81627e-006 4.69002e-007 -9.17518e-009 40.5483 33.7331 26.3469 70.979 39.0974 -71.1064 -19.2646 12.5866 -10.8937 -1.73457e-006 1.74626e-006 -3.00304e-006 
39.7387 37.0695 22.5118 179.994 51.0054 0.0125393 -0.170279 -1.48408 0.139326 -0.337115 -2.9686 0.274376 -0.337115 -2.96859 0.274376 4.56433e-006 15.9933 -3.52382e-006 2.07707e-007 12.2665 -2.04709e-007 6.2289 1.54648 18.1715 -20.0069 56.997 32.3315 32.0965 48.6369 -73.317 0.535274 -1.20165 8.12028 -1.52301e-006 -6.4084e-007 4.11235e-007 -2.92536e-006 5.61751e-007 7.44776e-007 -7.00542e-007 -8.96687e-007 3.45726e-006 -1.52301e-006 -6.4084e-007 4.11235e-007 -0.0146407 -8.85754e-005 9.0566e-007 -7.00686e-007 -8.9713e-007 3.45714e-006 -1.52301e-006 -6.4084e-007 4.11235e-007 -0.0187408 -0.00117306 6.8157e-005 -1.42416e-006 -1.07636e-006 1.42664e-006 -1.52301e-006 -6.4084e-007 4.11235e-007 -0.0122452 -0.00323993 0.000673225 -7.00572e-007 -8.97085e-007 3.45719e-006 -1.52301e-006 -6.4084e-007 4.11235e-007 -2.92536e-006 5.61751e-007 7.44776e-007 -7.00542e-007 -8.96687e-007 3.45726e-006 -6.24105 1.54282 -18.1732 20.0248 56.9874 -32.3561 -32.116 48.6231 73.3074 -0.544153 -1.19458 -8.12288 -9.25225e-007 2.14529e-006 2.93162e-007 -6.14429e-008 -5.47761e-007 -3.27778e-006 6.36111e-015 1.11319e-014 -3.18055e-015 -9.25225e-007 2.14529e-006 2.93162e-007 0.0150113 -9.11285e-005 -6.46521e-006 -5.96233e-007 1.83281e-007 -1.77428e-006 -9.25225e-007 2.14529e-006 2.93162e-007 0.0190383 -0.00119261 -6.64968e-005 -1.58901e-030 -9.54166e-015 -9.54166e-015 -9.25225e-007 2.14529e-006 2.93162e-007 0.0122682 -0.00324781 -0.000683973 -9.54166e-015 6.36111e-015 -0 -9.25225e-007 2.14529e-006 2.93162e-007 -6.14429e-008 -5.47761e-007 -3.27778e-006 6.36111e-015 1.11319e-014 -3.18055e-015 -40.7253 33.8071 -26.7809 -70.425 38.8026 70.738 18.7848 12.9572 11.0094 1.75842e-007 -8.20409e-007 1.42982e-007 41.0426 33.5578 26.6383 70.9786 39.0973 -71.0977 -18.673 12.7296 -11.4754 -4.77083e-015 -1.59028e-015 -6.36111e-015 
39.7384 37.0697 22.5116 179.994 51.0054 0.0125393 -0.170624 -1.55055 0.138721 -0.337676 -3.1015 0.27297 -0.337676 -3.10149 0.272971 -5.04135e-006 15.9931 7.4339e-007 -5.17167e-008 13.5394 2.21414e-008 6.29658 1.6462 18.4585 -19.989 57.0022 32.3095 32.0965 48.6369 -73.317 0.511804 -0.948229 7.95671 7.09703e-007 -2.0996e-006 3.12014e-006 2.31569e-007 3.68661e-006 -1.5645e-007 7.09703e-007 -2.0996e-006 3.12014e-006 7.09703e-007 -2.0996e-006 3.12014e-006 -0.0146215 -8.46627e-005 -1.28742e-005 7.09602e-007 -2.1e-006 3.11987e-006 7.09703e-007 -2.0996e-006 3.12014e-006 -0.0187687 -0.00117512 5.82858e-005 7.09601e-007 -2.10012e-006 3.11979e-006 7.09703e-007 -2.0996e-006 3.12014e-006 -0.0122936 -0.00325121 0.000672968 7.09692e-007 -2.09996e-006 3.1199e-006 7.09703e-007 -2.0996e-006 3.12014e-006 2.31569e-007 3.68661e-006 -1.5645e-007 7.09703e-007 -2.0996e-006 3.12014e-006 -6.3004 1.63459 -18.4446 20.0248 56.9874 -32.3561 -32.1159 48.6231 73.3074 -0.515661 -0.935061 -7.96875 6.36111e-015 0 3.18055e-015 -7.66647e-007 3.06928e-007 2.08032e-007 6.36111e-015 1.59028e-015 -6.36111e-015 6.36111e-015 0 3.18055e-015 0.0150091 -9.14102e-005 5.89761e-007 -3.18055e-015 -2.70347e-014 -3.18055e-015 6.36111e-015 0 3.18055e-015 0.0190232 -0.00119271 -6.46252e-005 3.18055e-015 3.18055e-015 -1.27222e-014 6.36111e-015 0 3.18055e-015 0.0123292 -0.00326415 -0.000676325 -6.36111e-015 6.36111e-015 -0 6.36111e-015 0 3.18055e-015 -7.66647e-007 3.06928e-007 2.08032e-007 6.36111e-015 1.59028e-015 -6.36111e-015 -41.4228 33.5656 -27.1351 -70.4229 38.8022 70.7243 17.9513 13.1397 11.8254 1.33627e-007 2.84562e-007 1.64102e-006 41.5373 33.3845 26.9311 70.978 39.0972 -71.089 -18.0793 12.8668 -12.0592 1.64085e-006 -3.50829e-007 -1.34161e-007 
